<svg width="100" height="22" viewBox="0 0 100 22" fill="none" xmlns="http://www.w3.org/2000/svg">
<path d="M12.4915 8.50363C15.0873 5.78266 19.3131 5.28543 22.2804 7.35263C23.8453 8.44378 24.8251 9.9585 24.8947 11.8231C25.0155 15.0597 24.9273 18.3009 24.9273 21.6066C23.7663 21.6066 22.6379 21.6066 21.412 21.6066C21.412 20.4096 21.412 19.2494 21.412 18.0938C21.412 16.2476 21.4166 14.3967 21.412 12.5505C21.4027 10.7688 20.0746 9.30472 18.3147 9.12056C16.3829 8.91799 14.6508 10.1104 14.3118 11.9152C14.219 12.4216 14.2143 12.9465 14.2143 13.4621C14.205 16.1463 14.2097 18.835 14.2097 21.5974C13.0348 21.5974 11.9436 21.5974 10.7223 21.5974C10.7223 21.2337 10.7223 20.8884 10.7223 20.5431C10.7223 17.9188 10.7455 15.2899 10.713 12.6656C10.6898 10.9299 9.61246 9.61779 7.96861 9.19883C6.45013 8.81209 4.75056 9.45205 4.01222 10.8333C3.70574 11.4041 3.54786 12.1224 3.53857 12.7761C3.48749 15.4327 3.49212 18.0938 3.52927 20.7503C3.53856 21.4823 3.31103 21.7355 2.57733 21.6895C1.76933 21.6388 0.952056 21.6757 0.0883357 21.6757C0.0558301 21.3442 0.00938732 21.0956 0.00938732 20.8516C0.00474366 18.0984 -0.00918731 15.3406 0.00938732 12.5874C0.0326056 9.10675 2.48445 6.48247 5.96719 6.1786C8.83233 5.92078 10.0258 6.34895 12.4915 8.50363Z" fill="#A960EE"/>
<path d="M89.4693 21.6112C88.3084 21.6112 87.18 21.6112 85.9727 21.6112C85.9727 18.6784 85.9773 15.8009 85.9727 12.9188C85.968 11.0818 84.886 9.69142 83.1168 9.22182C81.4451 8.77983 79.6248 9.46123 78.8168 10.9437C78.5196 11.487 78.3571 12.1638 78.3478 12.7853C78.3013 15.6997 78.3246 18.614 78.3246 21.5974C77.1451 21.5974 76.0213 21.5974 74.8279 21.5974C74.8279 14.4013 74.8279 7.22828 74.8279 0C75.9749 0 77.0986 0 78.2967 0C78.2967 2.55062 78.2967 5.0644 78.2967 7.72091C78.5614 7.55977 78.7193 7.4815 78.8586 7.38022C83.0379 4.28633 88.9678 6.70343 89.4229 11.8507C89.6969 15.0597 89.4693 18.3147 89.4693 21.6112Z" fill="#A960EE"/>
<path d="M48.3082 21.6158C47.0591 21.6158 45.9585 21.6158 44.9044 21.6158C44.9044 18.2365 44.6908 14.8894 44.9694 11.5883C45.2156 8.63714 47.7045 6.49168 50.6951 6.22464C51.9721 6.10954 53.3373 6.12796 54.5632 6.45024C57.2148 7.15465 58.8586 8.9364 59.3137 11.6804C59.4205 12.3157 59.4669 12.9695 59.4716 13.6141C59.4901 16.2614 59.4809 18.9133 59.4809 21.6112C58.2642 21.6112 57.1405 21.6112 55.9378 21.6112C55.9378 18.6693 55.9703 15.7872 55.9285 12.9097C55.8913 10.1703 53.2584 8.39313 50.7276 9.34616C49.2184 9.91245 48.3222 11.243 48.3129 12.9971C48.2989 15.4925 48.3082 17.9879 48.3082 20.4832C48.3082 20.8377 48.3082 21.1923 48.3082 21.6158Z" fill="#A960EE"/>
<path d="M27.5324 6.48706C28.7258 6.48706 29.8217 6.48706 31.0523 6.48706C31.0523 6.8784 31.0523 7.2191 31.0523 7.5644C31.0523 9.99532 31.0476 12.4262 31.0523 14.8617C31.0616 17.3617 32.5754 19.0146 34.8508 19.0238C37.1448 19.033 38.6725 17.3893 38.6772 14.8986C38.6818 12.4354 38.6772 9.97229 38.6772 7.50455C38.6772 7.18687 38.6772 6.8738 38.6772 6.49627C39.8659 6.49627 40.9665 6.49627 42.1367 6.49627C42.1646 6.74949 42.211 6.9935 42.211 7.23752C42.2156 9.8618 42.2249 12.4907 42.211 15.115C42.1878 19.1158 39.3087 21.9335 35.2687 21.9979C32.8308 22.0394 30.6669 21.4731 29.0323 19.5578C28.0896 18.4575 27.5742 17.1499 27.5463 15.7227C27.4906 12.684 27.5324 9.6362 27.5324 6.48706Z" fill="#A960EE"/>
<path d="M72.1902 9.4935C70.1749 9.47508 68.2199 9.2633 66.7757 10.8655C65.9584 11.7725 65.4523 12.8636 65.6055 14.0561C65.7263 15.0183 65.9584 16.1048 66.5296 16.8323C67.124 17.5873 68.1224 18.1674 69.0604 18.4759C69.9845 18.7752 71.0525 18.6417 72.1856 18.7015C72.1856 19.5348 72.2134 20.3682 72.1624 21.1969C72.1531 21.3626 71.8605 21.6343 71.6841 21.6481C69.1068 21.7954 66.6503 21.4593 64.6257 19.6822C62.2342 17.5873 61.4448 14.9354 62.3271 11.952C63.2373 8.86736 65.5359 7.15927 68.6796 6.59758C69.6037 6.43184 70.5696 6.44104 71.5076 6.47327C71.7444 6.48248 72.1299 6.88303 72.1624 7.13625C72.2459 7.86368 72.1902 8.61413 72.1902 9.4935Z" fill="#A960EE"/>
<path d="M99.8851 16.7585C100.363 18.8349 99.314 20.8193 97.3636 21.4822C95.3715 22.1636 93.1704 21.2198 92.302 19.3045C91.4755 17.4906 92.1999 15.2806 93.9598 14.2401C94.8328 13.7245 95.1115 13.8672 95.2508 14.8939C95.3669 15.741 96.9132 16.9151 97.958 16.9059C98.5803 16.8966 99.2025 16.8138 99.8851 16.7585Z" fill="#A960EE"/>
</svg>
